<?xml version="1.0" encoding="UTF-8" standalone="no"?>
<!-- Created with Inkscape (http://www.inkscape.org/) -->

<svg
   xmlns:dc="http://purl.org/dc/elements/1.1/"
   xmlns:cc="http://creativecommons.org/ns#"
   xmlns:rdf="http://www.w3.org/1999/02/22-rdf-syntax-ns#"
   xmlns:svg="http://www.w3.org/2000/svg"
   xmlns="http://www.w3.org/2000/svg"
   xmlns:sodipodi="http://sodipodi.sourceforge.net/DTD/sodipodi-0.dtd"
   xmlns:inkscape="http://www.inkscape.org/namespaces/inkscape"
   width="32"
   height="32"
   id="svg3014"
   version="1.1"
   inkscape:version="0.48.4 r9939"
   sodipodi:docname="t.svg">
  <defs
     id="defs3016" />
  <sodipodi:namedview
     id="base"
     pagecolor="#ffffff"
     bordercolor="#666666"
     borderopacity="1.0"
     inkscape:pageopacity="0.0"
     inkscape:pageshadow="2"
     inkscape:zoom="26.6875"
     inkscape:cx="16"
     inkscape:cy="16.562061"
     inkscape:document-units="px"
     inkscape:current-layer="layer3"
     showgrid="true"
     inkscape:window-width="1920"
     inkscape:window-height="1031"
     inkscape:window-x="0"
     inkscape:window-y="25"
     inkscape:window-maximized="1">
    <inkscape:grid
       type="xygrid"
       id="grid3022"
       empspacing="5"
       visible="true"
       enabled="true"
       snapvisiblegridlinesonly="true"
       dotted="true"
       spacingx="0.1px"
       spacingy="0.1px" />
  </sodipodi:namedview>
  <metadata
     id="metadata3019">
    <rdf:RDF>
      <cc:Work
         rdf:about="">
        <dc:format>image/svg+xml</dc:format>
        <dc:type
           rdf:resource="http://purl.org/dc/dcmitype/StillImage" />
      </cc:Work>
    </rdf:RDF>
  </metadata>
  <g
     inkscape:groupmode="layer"
     id="layer3"
     inkscape:label="Drawing">
    <path
       style="fill:none;stroke:#000000;stroke-width:0.2;stroke-linecap:round;stroke-linejoin:round;stroke-miterlimit:4;stroke-opacity:1;stroke-dasharray:none"
       d="m 0,32 c 0,0 2.6353026,-1.677283 4,-3 1.3646974,-1.322717 3.0231233,-3.47323 4,-5 0.9768767,-1.52677 1.2645695,-2.011942 2,-4 0.73543,-1.988058 1,-6 2,-8 1,-2 1.983592,-2.8583294 4,-4 2.016408,-1.1416706 8,-2 8,-2 l 0,0 0,0"
       id="path3037"
       inkscape:connector-curvature="0"
       sodipodi:nodetypes="czzzzzccc" />
    <path
       style="fill:none;stroke:#000000;stroke-width:0.2;stroke-linecap:round;stroke-linejoin:round;stroke-miterlimit:4;stroke-opacity:1;stroke-dasharray:none"
       d="M 0,16 C 0,16 1.013443,13.117554 2,12 2.7953877,11.098999 3.5,10.166667 4.5,9.5 5.5,8.8333333 6.8340338,8.2914915 8,8 10,7.5 11.706671,7.1083385 13.5,6 14.302001,5.504336 15.40227,4.729114 16,4 16.76196,3.0705584 18,1 18,1 l 0.187354,-0.22482436"
       id="path3807"
       inkscape:connector-curvature="0"
       sodipodi:nodetypes="cssssscc" />
    <path
       style="fill:none;stroke:#000000;stroke-width:0.2;stroke-linecap:round;stroke-linejoin:round;stroke-miterlimit:4;stroke-opacity:1;stroke-dasharray:none"
       d="M 4,20 C 4,20 5.1840608,17.247584 6,16 7.4249766,13.821189 8.6407923,11.822395 10.5,10 12.024245,8.5059346 14.103402,6.9790162 16,6 18.15636,4.8868957 23,4 23,4"
       id="path3809"
       inkscape:connector-curvature="0"
       sodipodi:nodetypes="csssc" />
    <path
       style="fill:none;stroke:#000000;stroke-width:0.2;stroke-linecap:round;stroke-linejoin:round;stroke-miterlimit:4;stroke-opacity:1;stroke-dasharray:none"
       d="m 0,32 c 0,0 3.6289417,-1.206163 5,-1 1.3710583,0.206163 3,1 3,1 l 0,0 c 0,0 2.513038,-3.38408 4,-4 1.486962,-0.61592 3.321701,-0.691212 4.5,-0.5 1.178299,0.191212 2,0.5 3.5,1.5 1.5,1 2.204124,1.426365 3,2 0.795876,0.573635 1,1 1,1"
       id="path3811"
       inkscape:connector-curvature="0"
       sodipodi:nodetypes="czcczzzzc" />
    <path
       style="fill:none;stroke:#000000;stroke-width:0.2;stroke-linecap:round;stroke-linejoin:round;stroke-miterlimit:4;stroke-opacity:1;stroke-dasharray:none"
       d="m 8,28 c 0,0 4.45051,-1.868481 7,-2 4.195934,-0.299655 7.807535,0.87169 11,3"
       id="path3817"
       inkscape:connector-curvature="0"
       sodipodi:nodetypes="ccc" />
    <path
       style="fill:none;stroke:#000000;stroke-width:0.2;stroke-linecap:round;stroke-linejoin:round;stroke-miterlimit:4;stroke-opacity:1;stroke-dasharray:none"
       d="m 0,12 1,1.5"
       id="path3819"
       inkscape:connector-curvature="0"
       sodipodi:nodetypes="cc" />
    <path
       style="fill:none;stroke:#000000;stroke-width:0.2;stroke-linecap:round;stroke-linejoin:round;stroke-miterlimit:4;stroke-opacity:1;stroke-dasharray:none"
       d="m 0,8 2,4"
       id="path3821"
       inkscape:connector-curvature="0" />
    <path
       style="fill:none;stroke:#000000;stroke-width:0.2;stroke-linecap:round;stroke-linejoin:round;stroke-miterlimit:4;stroke-opacity:1;stroke-dasharray:none"
       d="M 0,4 4.5,9.5"
       id="path3823"
       inkscape:connector-curvature="0"
       sodipodi:nodetypes="cc" />
    <path
       style="fill:none;stroke:#000000;stroke-width:0.2;stroke-linecap:round;stroke-linejoin:round;stroke-miterlimit:4;stroke-opacity:1;stroke-dasharray:none"
       d="M 0,0 8,8"
       id="path3825"
       inkscape:connector-curvature="0" />
    <path
       style="fill:none;stroke:#000000;stroke-width:0.2;stroke-linecap:round;stroke-linejoin:round;stroke-miterlimit:4;stroke-opacity:1;stroke-dasharray:none"
       d="M 5,5 C 5,5 10.166882,3.9102728 12,3 13.833118,2.0897272 16,0 16,0"
       id="path3827"
       inkscape:connector-curvature="0"
       sodipodi:nodetypes="czc" />
    <path
       style="fill:none;stroke:#000000;stroke-width:0.2;stroke-linecap:round;stroke-linejoin:round;stroke-miterlimit:4;stroke-opacity:1;stroke-dasharray:none"
       d="M 3,3 C 3,3 6.4911501,2.5176981 8,2 9.5088499,1.4823019 12,0 12,0"
       id="path3829"
       inkscape:connector-curvature="0"
       sodipodi:nodetypes="czc" />
    <path
       style="fill:none;stroke:#000000;stroke-width:0.2;stroke-linecap:round;stroke-linejoin:round;stroke-miterlimit:4;stroke-opacity:1;stroke-dasharray:none"
       d="M 2,2 8,0"
       id="path3831"
       inkscape:connector-curvature="0" />
    <path
       style="fill:none;stroke:#000000;stroke-width:0.2;stroke-linecap:round;stroke-linejoin:round;stroke-miterlimit:4;stroke-opacity:1;stroke-dasharray:none"
       d="M 1,1 4,0"
       id="path3833"
       inkscape:connector-curvature="0" />
    <path
       style="fill:none;stroke:#000000;stroke-width:0.2;stroke-linecap:round;stroke-linejoin:round;stroke-miterlimit:4;stroke-opacity:1;stroke-dasharray:none"
       d="m 9,22.5 c 0,0 1.80687,0.547649 3,0.5 1.19313,-0.04765 4,-1 4,-1 l 0,0"
       id="path3835"
       inkscape:connector-curvature="0"
       sodipodi:nodetypes="czcc" />
    <path
       style="fill:none;stroke:#000000;stroke-width:0.2;stroke-linecap:round;stroke-linejoin:round;stroke-miterlimit:4;stroke-opacity:1;stroke-dasharray:none"
       d="m 10,20 c 0,0 1.945907,1 3,1 1.054093,0 3,-1 3,-1"
       id="path3837"
       inkscape:connector-curvature="0"
       sodipodi:nodetypes="czc" />
    <path
       style="fill:none;stroke:#000000;stroke-width:0.2;stroke-linecap:round;stroke-linejoin:round;stroke-miterlimit:4;stroke-opacity:1;stroke-dasharray:none"
       d="m 11,16 c 0,0 2.105829,1.729267 3,2 0.894171,0.270733 2,0 2,0"
       id="path3839"
       inkscape:connector-curvature="0"
       sodipodi:nodetypes="czc" />
    <path
       style="fill:none;stroke:#000000;stroke-width:0.2;stroke-linecap:round;stroke-linejoin:round;stroke-miterlimit:4;stroke-opacity:1;stroke-dasharray:none"
       d="m 12,12 4,4"
       id="path3841"
       inkscape:connector-curvature="0" />
    <path
       style="fill:none;stroke:#000000;stroke-width:0.2;stroke-linecap:round;stroke-linejoin:round;stroke-miterlimit:4;stroke-opacity:1;stroke-dasharray:none"
       d="m 8,24 c 0,0 1.9384472,1 4,1 2.061553,0 6.305093,-1.791347 8,-2 1.694907,-0.208653 0.550377,-0.07114 2,0 1.449623,0.07114 4.260833,1.464695 6,3 1.739167,1.535305 4,6 4,6"
       id="path3843"
       inkscape:connector-curvature="0"
       sodipodi:nodetypes="czzzzc" />
    <path
       style="fill:none;stroke:#000000;stroke-width:0.2;stroke-linecap:round;stroke-linejoin:round;stroke-miterlimit:4;stroke-opacity:1;stroke-dasharray:none"
       d="m 13,13 c 0,0 1.344813,-2.026082 3,-3 1.655187,-0.9739177 7,-2 7,-2"
       id="path3849"
       inkscape:connector-curvature="0"
       sodipodi:nodetypes="czc" />
    <path
       style="fill:none;stroke:#000000;stroke-width:0.2;stroke-linecap:round;stroke-linejoin:round;stroke-miterlimit:4;stroke-opacity:1;stroke-dasharray:none"
       d="m 14,14 c 0,0 1.047958,-1.145613 2.5,-2 1.452042,-0.854387 6.237705,-2 6.237705,-2"
       id="path3851"
       inkscape:connector-curvature="0"
       sodipodi:nodetypes="czc" />
    <path
       style="fill:none;stroke:#000000;stroke-width:0.2;stroke-linecap:round;stroke-linejoin:round;stroke-miterlimit:4;stroke-opacity:1;stroke-dasharray:none"
       d="m 15,15 c 0,0 0.70628,-0.428783 2,-1 1.29372,-0.571217 6,-1 6,-1"
       id="path3853"
       inkscape:connector-curvature="0"
       sodipodi:nodetypes="czc" />
    <path
       style="fill:none;stroke:#000000;stroke-width:0.2;stroke-linecap:round;stroke-linejoin:round;stroke-miterlimit:4;stroke-opacity:1;stroke-dasharray:none"
       d="m 20,23 c 0,0 0.232765,-0.791348 0,-2 -0.232765,-1.208652 -2,-5 -2,-5"
       id="path3855"
       inkscape:connector-curvature="0"
       sodipodi:nodetypes="czc" />
    <path
       style="fill:none;stroke:#000000;stroke-width:0.2;stroke-linecap:round;stroke-linejoin:round;stroke-miterlimit:4;stroke-opacity:1;stroke-dasharray:none"
       d="m 22,23 c 0,0 0.232765,-0.791348 0,-2 -0.232765,-1.208652 -2,-5 -2,-5"
       id="path3857"
       inkscape:connector-curvature="0"
       sodipodi:nodetypes="czc" />
    <path
       style="fill:none;stroke:#000000;stroke-width:0.2;stroke-linecap:round;stroke-linejoin:round;stroke-miterlimit:4;stroke-opacity:1;stroke-dasharray:none"
       d="m 24,23.662763 c 0,0 0.264283,-1.290452 0,-2.662763 -0.264283,-1.372311 -2,-5 -2,-5"
       id="path3859"
       inkscape:connector-curvature="0"
       sodipodi:nodetypes="czc" />
    <path
       style="fill:none;stroke:#000000;stroke-width:0.2;stroke-linecap:round;stroke-linejoin:round;stroke-miterlimit:4;stroke-opacity:1;stroke-dasharray:none"
       d="m 26,24.625293 c 0,0 0.333361,-0.571027 0,-2.625293 -0.333361,-2.054266 -2.613244,-6.616705 -3,-9 -0.386756,-2.383295 -0.277085,-3.8262507 0,-5 0.277085,-1.1737493 0.506456,-1.3152447 1,-2 0.493544,-0.6847553 0.706001,-0.9391749 2,-2 1.293999,-1.0608251 6,-4 6,-4"
       id="path3861"
       inkscape:connector-curvature="0"
       sodipodi:nodetypes="czzzzzc" />
    <path
       style="fill:none;stroke:#000000;stroke-width:0.2;stroke-linecap:round;stroke-linejoin:round;stroke-miterlimit:4;stroke-opacity:1;stroke-dasharray:none"
       d="M 30,27 C 30,27 26.721448,19.289328 26.449649,16.337237 26.17785,13.385145 27.5,8 27.5,8"
       id="path3863"
       inkscape:connector-curvature="0"
       sodipodi:nodetypes="czc" />
    <path
       style="fill:none;stroke:#000000;stroke-width:0.2;stroke-linecap:round;stroke-linejoin:round;stroke-miterlimit:4;stroke-opacity:1;stroke-dasharray:none"
       d="m 16,0 c 0,0 3.521146,1.2490218 5,1.5 1.478854,0.2509782 1.974257,0.2493803 4,0 C 27.025743,1.2506197 32,0 32,0 l 0,0 0,0"
       id="path3865"
       inkscape:connector-curvature="0"
       sodipodi:nodetypes="czzccc" />
    <path
       style="fill:none;stroke:#000000;stroke-width:0.2;stroke-linecap:round;stroke-linejoin:round;stroke-miterlimit:4;stroke-opacity:1;stroke-dasharray:none"
       d="M 32,32 C 32,32 31.056132,28.232885 31.262295,26.861827 31.468458,25.490768 32,24 32,24 l 0,0 0,0 c 0,0 -2.346525,-2.627067 -3,-4 -0.653475,-1.372933 -0.746832,-2.786664 -0.700234,-4 0.0466,-1.213336 0.213307,-1.824454 0.700234,-3 0.486927,-1.175546 1.426365,-3.2041242 2,-4 0.573635,-0.7958758 1,-1 1,-1"
       id="path3867"
       inkscape:connector-curvature="0"
       sodipodi:nodetypes="czccczzzzc" />
    <path
       style="fill:none;stroke:#000000;stroke-width:0.2;stroke-linecap:round;stroke-linejoin:round;stroke-miterlimit:4;stroke-opacity:1;stroke-dasharray:none"
       d="M 32,22 29,16"
       id="path3869"
       inkscape:connector-curvature="0" />
    <path
       style="fill:none;stroke:#000000;stroke-width:0.2;stroke-linecap:round;stroke-linejoin:round;stroke-miterlimit:4;stroke-opacity:1;stroke-dasharray:none"
       d="M 32,20 30,16"
       id="path3871"
       inkscape:connector-curvature="0" />
    <path
       style="fill:none;stroke:#000000;stroke-width:0.2;stroke-linecap:round;stroke-linejoin:round;stroke-miterlimit:4;stroke-opacity:1;stroke-dasharray:none"
       d="M 32,18 31,16"
       id="path3873"
       inkscape:connector-curvature="0" />
    <path
       style="fill:none;stroke:#000000;stroke-width:0.2;stroke-linecap:round;stroke-linejoin:round;stroke-miterlimit:4;stroke-opacity:1;stroke-dasharray:none"
       d="m 29,13 3,1"
       id="path3879"
       inkscape:connector-curvature="0" />
    <path
       style="fill:none;stroke:#000000;stroke-width:0.2;stroke-linecap:round;stroke-linejoin:round;stroke-miterlimit:4;stroke-opacity:1;stroke-dasharray:none"
       d="m 30,11 2,1"
       id="path3881"
       inkscape:connector-curvature="0" />
    <path
       style="fill:none;stroke:#000000;stroke-width:0.2;stroke-linecap:round;stroke-linejoin:round;stroke-miterlimit:4;stroke-opacity:1;stroke-dasharray:none"
       d="m 31,9 1,1"
       id="path3883"
       inkscape:connector-curvature="0" />
    <path
       style="stroke:none;display:inline;stroke-width:0.20000000000000001;stroke-miterlimit:4;stroke-dasharray:none;fill:#800000"
       d="M 7.962258,21.172671 C 7.7494219,21.422947 2.4829512,26.46345 2.4799615,26.419743 2.4778215,26.389393 2.8426558,25.2776 3.3756005,23.7231 l 1.0331933,-3.013617 1.8044974,0.19895 c 1.7426759,0.19212 1.8025956,0.201184 1.7489668,0.264238 z"
       id="path3897"
       inkscape:connector-curvature="0"
       sodipodi:nodetypes="ccscsc" />
    <path
       sodipodi:nodetypes="ccscsc"
       inkscape:connector-curvature="0"
       id="path4581"
       d="m 0.01046104,18.843839 c 0.041363,0.325924 1.69493656,7.425789 1.72133726,7.390828 0.018386,-0.02424 0.3208046,-1.154609 0.7245232,-2.747566 L 3.2389826,20.398927 1.6193229,19.57887 C 0.05515994,18.786895 3.4143326e-5,18.761723 0.01046104,18.843839 z"
       style="stroke:none;display:inline;stroke-width:0.20000000000000001;stroke-miterlimit:4;stroke-dasharray:none;fill:#800000" />
    <g
       id="g4587"
       style="stroke-width:0.2;stroke-miterlimit:4;stroke-dasharray:none">
      <path
         style="stroke:none;display:inline;stroke-width:0.2;stroke-miterlimit:4;stroke-dasharray:none"
         d="m 24.762981,6.4963723 c 0.177281,-0.1395758 4.481154,-2.8722635 4.480254,-2.8446785 -5.86e-4,0.01916 -0.353494,0.6856081 -0.864034,1.6156044 L 27.389447,7.0702264 26.053088,6.8015042 C 24.762511,6.5419971 24.718314,6.531536 24.762981,6.4963723 z"
         id="path4583"
         inkscape:connector-curvature="0"
         sodipodi:nodetypes="ccscsc" />
      <path
         sodipodi:nodetypes="ccscsc"
         inkscape:connector-curvature="0"
         id="path4585"
         d="M 30.262531,9.2371755 C 30.277721,9.0120547 30.105107,3.9168507 30.08284,3.9331596 30.06735,3.9444556 29.716296,4.6118803 29.23661,5.5581598 l -0.929938,1.8344975 0.975949,0.9516236 c 0.942508,0.9190286 0.976085,0.9496139 0.97991,0.8928946 z"
         style="stroke:none;display:inline;stroke-width:0.2;stroke-miterlimit:4;stroke-dasharray:none" />
    </g>
    <g
       id="g4591"
       transform="matrix(0.00881251,0.87140997,-0.84584562,0.00907886,32.221661,4.6644547)"
       style="stroke-width:0.23294297;stroke-miterlimit:4;stroke-dasharray:none">
      <path
         sodipodi:nodetypes="ccscsc"
         inkscape:connector-curvature="0"
         id="path4593"
         d="m 24.762981,6.4963723 c 0.177281,-0.1395758 4.481154,-2.8722635 4.480254,-2.8446785 -5.86e-4,0.01916 -0.353494,0.6856081 -0.864034,1.6156044 L 27.389447,7.0702264 26.053088,6.8015042 C 24.762511,6.5419971 24.718314,6.531536 24.762981,6.4963723 z"
         style="stroke:none;display:inline;stroke-width:0.23294297;stroke-miterlimit:4;stroke-dasharray:none" />
      <path
         style="stroke:none;display:inline;stroke-width:0.23294297;stroke-miterlimit:4;stroke-dasharray:none"
         d="M 30.262531,9.2371755 C 30.277721,9.0120547 30.105107,3.9168507 30.08284,3.9331596 30.06735,3.9444556 29.716296,4.6118803 29.23661,5.5581598 l -0.929938,1.8344975 0.975949,0.9516236 c 0.942508,0.9190286 0.976085,0.9496139 0.97991,0.8928946 z"
         id="path4595"
         inkscape:connector-curvature="0"
         sodipodi:nodetypes="ccscsc" />
    </g>
  </g>
</svg>
