<?xml version="1.0" encoding="UTF-8" standalone="no"?>
<!-- Created with Inkscape (http://www.inkscape.org/) -->

<svg
   xmlns:dc="http://purl.org/dc/elements/1.1/"
   xmlns:cc="http://creativecommons.org/ns#"
   xmlns:rdf="http://www.w3.org/1999/02/22-rdf-syntax-ns#"
   xmlns:svg="http://www.w3.org/2000/svg"
   xmlns="http://www.w3.org/2000/svg"
   xmlns:sodipodi="http://sodipodi.sourceforge.net/DTD/sodipodi-0.dtd"
   xmlns:inkscape="http://www.inkscape.org/namespaces/inkscape"
   width="32"
   height="32"
   id="svg3014"
   version="1.1"
   inkscape:version="0.48.4 r9939"
   sodipodi:docname="t.svg">
  <defs
     id="defs3016" />
  <sodipodi:namedview
     id="base"
     pagecolor="#ffffff"
     bordercolor="#666666"
     borderopacity="1.0"
     inkscape:pageopacity="0.0"
     inkscape:pageshadow="2"
     inkscape:zoom="19.8125"
     inkscape:cx="10.337052"
     inkscape:cy="11.962145"
     inkscape:document-units="px"
     inkscape:current-layer="layer3"
     showgrid="true"
     inkscape:window-width="1920"
     inkscape:window-height="1031"
     inkscape:window-x="0"
     inkscape:window-y="25"
     inkscape:window-maximized="1">
    <inkscape:grid
       type="xygrid"
       id="grid3022"
       empspacing="5"
       visible="true"
       enabled="true"
       snapvisiblegridlinesonly="true"
       dotted="true"
       spacingx="0.1px"
       spacingy="0.1px" />
  </sodipodi:namedview>
  <metadata
     id="metadata3019">
    <rdf:RDF>
      <cc:Work
         rdf:about="">
        <dc:format>image/svg+xml</dc:format>
        <dc:type
           rdf:resource="http://purl.org/dc/dcmitype/StillImage" />
      </cc:Work>
    </rdf:RDF>
  </metadata>
  <g
     inkscape:groupmode="layer"
     id="layer3"
     inkscape:label="Drawing"
     style="display:inline">
    <path
       style="fill:none;stroke:#000000;stroke-width:0.3;stroke-linecap:round;stroke-linejoin:round;stroke-miterlimit:4;stroke-opacity:1;stroke-dasharray:none"
       d="m 0,32 c 0,0 2.6353026,-1.677283 4,-3 1.3646974,-1.322717 3.0231233,-3.47323 4,-5 0.9768767,-1.52677 1.2645695,-2.011942 2,-4 0.73543,-1.988058 1,-6 2,-8 1,-2 1.983592,-2.8583294 4,-4 2.016408,-1.1416706 8,-2 8,-2 l 0,0 0,0"
       id="path3037"
       inkscape:connector-curvature="0"
       sodipodi:nodetypes="czzzzzccc" />
    <path
       style="fill:none;stroke:#000000;stroke-width:0.3;stroke-linecap:round;stroke-linejoin:round;stroke-miterlimit:4;stroke-opacity:1;stroke-dasharray:none"
       d="M 0,16 C 0,16 1.013443,13.117554 2,12 2.7953877,11.098999 3.5,10.166667 4.5,9.5 5.5,8.8333333 6.8340338,8.2914915 8,8 10,7.5 11.706671,7.1083385 13.5,6 14.302001,5.504336 15.40227,4.729114 16,4 16.76196,3.0705584 18,1 18,1 l 0.187354,-0.22482436"
       id="path3807"
       inkscape:connector-curvature="0"
       sodipodi:nodetypes="cssssscc" />
    <path
       style="fill:none;stroke:#000000;stroke-width:0.3;stroke-linecap:round;stroke-linejoin:round;stroke-miterlimit:4;stroke-opacity:1;stroke-dasharray:none"
       d="M 4,20 C 4,20 5.1840608,17.247584 6,16 7.4249766,13.821189 8.6407923,11.822395 10.5,10 12.024245,8.5059346 14.103402,6.9790162 16,6 18.15636,4.8868957 23,4 23,4"
       id="path3809"
       inkscape:connector-curvature="0"
       sodipodi:nodetypes="csssc" />
    <path
       style="fill:none;stroke:#000000;stroke-width:0.3;stroke-linecap:round;stroke-linejoin:round;stroke-miterlimit:4;stroke-opacity:1;stroke-dasharray:none"
       d="m 0,32 c 0,0 3.6289417,-1.206163 5,-1 1.3710583,0.206163 3,1 3,1 l 0,0 c 0,0 2.513038,-3.38408 4,-4 1.486962,-0.61592 3.321701,-0.691212 4.5,-0.5 1.178299,0.191212 2,0.5 3.5,1.5 1.5,1 2.204124,1.426365 3,2 0.795876,0.573635 1,1 1,1"
       id="path3811"
       inkscape:connector-curvature="0"
       sodipodi:nodetypes="czcczzzzc" />
    <path
       style="fill:none;stroke:#000000;stroke-width:0.3;stroke-linecap:round;stroke-linejoin:round;stroke-miterlimit:4;stroke-opacity:1;stroke-dasharray:none"
       d="m 8,28 c 0,0 4.45051,-1.868481 7,-2 4.195934,-0.299655 7.807535,0.87169 11,3"
       id="path3817"
       inkscape:connector-curvature="0"
       sodipodi:nodetypes="ccc" />
    <path
       style="fill:none;stroke:#000000;stroke-width:0.3;stroke-linecap:round;stroke-linejoin:round;stroke-miterlimit:4;stroke-opacity:1;stroke-dasharray:none"
       d="m 0,12 1,1.5"
       id="path3819"
       inkscape:connector-curvature="0"
       sodipodi:nodetypes="cc" />
    <path
       style="fill:none;stroke:#000000;stroke-width:0.3;stroke-linecap:round;stroke-linejoin:round;stroke-miterlimit:4;stroke-opacity:1;stroke-dasharray:none"
       d="m 0,8 2,4"
       id="path3821"
       inkscape:connector-curvature="0" />
    <path
       style="fill:none;stroke:#000000;stroke-width:0.3;stroke-linecap:round;stroke-linejoin:round;stroke-miterlimit:4;stroke-opacity:1;stroke-dasharray:none"
       d="M 0,4 4.5,9.5"
       id="path3823"
       inkscape:connector-curvature="0"
       sodipodi:nodetypes="cc" />
    <path
       style="fill:none;stroke:#000000;stroke-width:0.3;stroke-linecap:round;stroke-linejoin:round;stroke-miterlimit:4;stroke-opacity:1;stroke-dasharray:none"
       d="M 0,0 8,8"
       id="path3825"
       inkscape:connector-curvature="0" />
    <path
       style="fill:none;stroke:#000000;stroke-width:0.3;stroke-linecap:round;stroke-linejoin:round;stroke-miterlimit:4;stroke-opacity:1;stroke-dasharray:none"
       d="M 5,5 C 5,5 10.166882,3.9102728 12,3 13.833118,2.0897272 16,0 16,0"
       id="path3827"
       inkscape:connector-curvature="0"
       sodipodi:nodetypes="czc" />
    <path
       style="fill:none;stroke:#000000;stroke-width:0.3;stroke-linecap:round;stroke-linejoin:round;stroke-miterlimit:4;stroke-opacity:1;stroke-dasharray:none"
       d="M 3,3 C 3,3 6.4911501,2.5176981 8,2 9.5088499,1.4823019 12,0 12,0"
       id="path3829"
       inkscape:connector-curvature="0"
       sodipodi:nodetypes="czc" />
    <path
       style="fill:none;stroke:#000000;stroke-width:0.3;stroke-linecap:round;stroke-linejoin:round;stroke-miterlimit:4;stroke-opacity:1;stroke-dasharray:none"
       d="M 2,2 8,0"
       id="path3831"
       inkscape:connector-curvature="0" />
    <path
       style="fill:none;stroke:#000000;stroke-width:0.3;stroke-linecap:round;stroke-linejoin:round;stroke-miterlimit:4;stroke-opacity:1;stroke-dasharray:none"
       d="M 1,1 4,0"
       id="path3833"
       inkscape:connector-curvature="0" />
    <path
       style="fill:none;stroke:#000000;stroke-width:0.3;stroke-linecap:round;stroke-linejoin:round;stroke-miterlimit:4;stroke-opacity:1;stroke-dasharray:none"
       d="m 9,22.5 c 0,0 1.80687,0.547649 3,0.5 1.19313,-0.04765 4,-1 4,-1 l 0,0"
       id="path3835"
       inkscape:connector-curvature="0"
       sodipodi:nodetypes="czcc" />
    <path
       style="fill:none;stroke:#000000;stroke-width:0.3;stroke-linecap:round;stroke-linejoin:round;stroke-miterlimit:4;stroke-opacity:1;stroke-dasharray:none"
       d="m 10,20 c 0,0 1.945907,1 3,1 1.054093,0 3,-1 3,-1"
       id="path3837"
       inkscape:connector-curvature="0"
       sodipodi:nodetypes="czc" />
    <path
       style="fill:none;stroke:#000000;stroke-width:0.3;stroke-linecap:round;stroke-linejoin:round;stroke-miterlimit:4;stroke-opacity:1;stroke-dasharray:none"
       d="m 11,16 c 0,0 2.105829,1.729267 3,2 0.894171,0.270733 2,0 2,0"
       id="path3839"
       inkscape:connector-curvature="0"
       sodipodi:nodetypes="czc" />
    <path
       style="fill:none;stroke:#000000;stroke-width:0.3;stroke-linecap:round;stroke-linejoin:round;stroke-miterlimit:4;stroke-opacity:1;stroke-dasharray:none"
       d="m 12,12 4,4"
       id="path3841"
       inkscape:connector-curvature="0" />
    <path
       style="fill:none;stroke:#000000;stroke-width:0.3;stroke-linecap:round;stroke-linejoin:round;stroke-miterlimit:4;stroke-opacity:1;stroke-dasharray:none"
       d="m 8,24 c 0,0 1.9384472,1 4,1 2.061553,0 6.305093,-1.791347 8,-2 1.694907,-0.208653 0.550377,-0.07114 2,0 1.449623,0.07114 4.260833,1.464695 6,3 1.739167,1.535305 4,6 4,6"
       id="path3843"
       inkscape:connector-curvature="0"
       sodipodi:nodetypes="czzzzc" />
    <path
       style="fill:none;stroke:#000000;stroke-width:0.30000001;stroke-linecap:round;stroke-linejoin:round;stroke-miterlimit:4;stroke-opacity:1;stroke-dasharray:none"
       d="M 13.050473,12.949527 C 13.050473,12.949527 15,11 17.11041,9.7981073 19.22082,8.5962145 23,8 23,8"
       id="path3849"
       inkscape:connector-curvature="0"
       sodipodi:nodetypes="czc" />
    <path
       style="fill:none;stroke:#000000;stroke-width:0.30000001;stroke-linecap:round;stroke-linejoin:round;stroke-miterlimit:4;stroke-opacity:1;stroke-dasharray:none"
       d="M 14.100946,13.949527 C 14.100946,13.949527 15,13 17,12 c 2,-1 5.737705,-2 5.737705,-2"
       id="path3851"
       inkscape:connector-curvature="0"
       sodipodi:nodetypes="czc" />
    <path
       style="fill:none;stroke:#000000;stroke-width:0.30000001;stroke-linecap:round;stroke-linejoin:round;stroke-miterlimit:4;stroke-opacity:1;stroke-dasharray:none"
       d="M 15.100946,14.949527 C 15.100946,14.949527 17,14 18.5,13.5 20,13 23,13 23,13"
       id="path3853"
       inkscape:connector-curvature="0"
       sodipodi:nodetypes="czc" />
    <path
       style="fill:none;stroke:#000000;stroke-width:0.3;stroke-linecap:round;stroke-linejoin:round;stroke-miterlimit:4;stroke-opacity:1;stroke-dasharray:none"
       d="m 20,23 c 0,0 0.232765,-0.791348 0,-2 -0.232765,-1.208652 -2,-5 -2,-5"
       id="path3855"
       inkscape:connector-curvature="0"
       sodipodi:nodetypes="czc" />
    <path
       style="fill:none;stroke:#000000;stroke-width:0.3;stroke-linecap:round;stroke-linejoin:round;stroke-miterlimit:4;stroke-opacity:1;stroke-dasharray:none"
       d="m 22,23 c 0,0 0.232765,-0.791348 0,-2 -0.232765,-1.208652 -2,-5 -2,-5"
       id="path3857"
       inkscape:connector-curvature="0"
       sodipodi:nodetypes="czc" />
    <path
       style="fill:none;stroke:#000000;stroke-width:0.3;stroke-linecap:round;stroke-linejoin:round;stroke-miterlimit:4;stroke-opacity:1;stroke-dasharray:none"
       d="m 24,23.662763 c 0,0 0.264283,-1.290452 0,-2.662763 -0.264283,-1.372311 -2,-5 -2,-5"
       id="path3859"
       inkscape:connector-curvature="0"
       sodipodi:nodetypes="czc" />
    <path
       style="fill:none;stroke:#000000;stroke-width:0.3;stroke-linecap:round;stroke-linejoin:round;stroke-miterlimit:4;stroke-opacity:1;stroke-dasharray:none"
       d="m 26,24.625293 c 0,0 0.333361,-0.571027 0,-2.625293 -0.333361,-2.054266 -2.613244,-6.616705 -3,-9 -0.386756,-2.383295 -0.277085,-3.8262507 0,-5 0.277085,-1.1737493 0.506456,-1.3152447 1,-2 0.493544,-0.6847553 0.706001,-0.9391749 2,-2 1.293999,-1.0608251 6,-4 6,-4"
       id="path3861"
       inkscape:connector-curvature="0"
       sodipodi:nodetypes="czzzzzc" />
    <path
       style="fill:none;stroke:#000000;stroke-width:0.3;stroke-linecap:round;stroke-linejoin:round;stroke-miterlimit:4;stroke-opacity:1;stroke-dasharray:none"
       d="M 30,27 C 30,27 26.721448,19.289328 26.449649,16.337237 26.17785,13.385145 27.5,8 27.5,8"
       id="path3863"
       inkscape:connector-curvature="0"
       sodipodi:nodetypes="czc" />
    <path
       style="fill:none;stroke:#000000;stroke-width:0.3;stroke-linecap:round;stroke-linejoin:round;stroke-miterlimit:4;stroke-opacity:1;stroke-dasharray:none"
       d="M 16.006287,-0.10715267 C 18.97315,1.1995885 22.643283,1.2655789 25,1 27.02789,0.76873791 32.005649,0.035867 32.005649,0.035867 l 0,0 0,0"
       id="path3865"
       inkscape:connector-curvature="0"
       sodipodi:nodetypes="ccccc" />
    <path
       style="fill:none;stroke:#000000;stroke-width:0.30000001;stroke-linecap:round;stroke-linejoin:round;stroke-miterlimit:4;stroke-opacity:1;stroke-dasharray:none"
       d="M 32,32 C 32,32 31.056132,28.232885 31.262295,26.861827 31.468458,25.490768 32,24 32,24 l 0,0 0,0 c 0,0 -2.5,-1.5 -3,-5 -0.447642,-2.876337 -0.54966,-3.826009 0.5,-6 0.831134,-1.811701 1.34858,-2 2.34858,-5"
       id="path3867"
       inkscape:connector-curvature="0"
       sodipodi:nodetypes="czcccccc" />
    <path
       style="fill:none;stroke:#000000;stroke-width:0.3;stroke-linecap:round;stroke-linejoin:round;stroke-miterlimit:4;stroke-opacity:1;stroke-dasharray:none"
       d="M 32,22 29,16"
       id="path3869"
       inkscape:connector-curvature="0" />
    <path
       style="fill:none;stroke:#000000;stroke-width:0.3;stroke-linecap:round;stroke-linejoin:round;stroke-miterlimit:4;stroke-opacity:1;stroke-dasharray:none"
       d="M 32,20 30,16"
       id="path3871"
       inkscape:connector-curvature="0" />
    <path
       style="fill:none;stroke:#000000;stroke-width:0.3;stroke-linecap:round;stroke-linejoin:round;stroke-miterlimit:4;stroke-opacity:1;stroke-dasharray:none"
       d="M 32,18 31,16"
       id="path3873"
       inkscape:connector-curvature="0" />
    <path
       style="fill:none;stroke:#000000;stroke-width:0.30000001;stroke-linecap:round;stroke-linejoin:round;stroke-miterlimit:4;stroke-opacity:1;stroke-dasharray:none"
       d="M 29.504731,13.050473 32,14"
       id="path3879"
       inkscape:connector-curvature="0"
       sodipodi:nodetypes="cc" />
    <path
       style="fill:none;stroke:#000000;stroke-width:0.30000001;stroke-linecap:round;stroke-linejoin:round;stroke-miterlimit:4;stroke-opacity:1;stroke-dasharray:none"
       d="M 30.504732,11.302839 32,12"
       id="path3881"
       inkscape:connector-curvature="0"
       sodipodi:nodetypes="cc" />
    <path
       style="fill:none;stroke:#000000;stroke-width:0.30000001;stroke-linecap:round;stroke-linejoin:round;stroke-miterlimit:4;stroke-opacity:1;stroke-dasharray:none"
       d="M 31.201893,9.6514196 32,10"
       id="path3883"
       inkscape:connector-curvature="0"
       sodipodi:nodetypes="cc" />
    <path
       style="fill:none;stroke:#000000;stroke-width:0.3;stroke-linecap:round;stroke-linejoin:round;stroke-miterlimit:4;stroke-opacity:1;stroke-dasharray:none"
       d="m 10,32 c 0,0 1.179568,-1.535479 2,-2 1.195975,-0.67715 4,-1 4,-1"
       id="path3962"
       inkscape:connector-curvature="0"
       sodipodi:nodetypes="csc" />
    <path
       style="fill:none;stroke:#000000;stroke-width:0.3;stroke-linecap:round;stroke-linejoin:round;stroke-miterlimit:4;stroke-opacity:1;stroke-dasharray:none"
       d="m 12,32 c 0,0 0.598999,-0.752168 1,-1 0.896665,-0.554169 3,-1 3,-1"
       id="path3964"
       inkscape:connector-curvature="0"
       sodipodi:nodetypes="csc" />
    <path
       style="fill:none;stroke:#000000;stroke-width:0.3;stroke-linecap:round;stroke-linejoin:round;stroke-opacity:1;stroke-miterlimit:4;stroke-dasharray:none"
       d="m 14,32 2,-1"
       id="path3966"
       inkscape:connector-curvature="0" />
    <path
       style="fill:none;stroke:#000000;stroke-width:0.3;stroke-linecap:round;stroke-linejoin:round;stroke-opacity:1;stroke-miterlimit:4;stroke-dasharray:none"
       d="m 18,32 1,-3.5"
       id="path3968"
       inkscape:connector-curvature="0" />
    <path
       style="fill:none;stroke:#000000;stroke-width:0.3;stroke-linecap:round;stroke-linejoin:round;stroke-miterlimit:4;stroke-opacity:1;stroke-dasharray:none"
       d="m 20,32 1.10707,-2.285519"
       id="path3970"
       inkscape:connector-curvature="0"
       sodipodi:nodetypes="cc" />
    <path
       style="fill:none;stroke:#000000;stroke-width:0.3;stroke-linecap:round;stroke-linejoin:round;stroke-opacity:1;stroke-miterlimit:4;stroke-dasharray:none"
       d="m 22,32 1,-1"
       id="path3972"
       inkscape:connector-curvature="0" />
    <path
       sodipodi:nodetypes="ccccc"
       inkscape:connector-curvature="0"
       id="path4675"
       d="M 16.006287,-0.10715267 C 18.97315,1.1995885 22.643283,1.2655789 25,1 27.02789,0.76873791 32.005649,0.035867 32.005649,0.035867 l 0,0 0,0"
       style="fill:none;stroke:#000000;stroke-width:0.3;stroke-linecap:round;stroke-linejoin:round;stroke-miterlimit:4;stroke-opacity:1;stroke-dasharray:none" />
    <g
       id="g3834"
       transform="matrix(0.94956906,0,0,0.87922425,0.44326914,1.989654)">
      <path
         sodipodi:nodetypes="cscsc"
         inkscape:connector-curvature="0"
         id="path3812"
         d="m 2.7858782,26.70291 c -0.5330418,-1.305596 -0.1853453,-2.005746 0.6036337,-3.624238 0.6952028,-1.426121 0.9097704,-2.008655 1.4394909,-2.312189 0.678475,-0.03267 1.8718846,0.353359 1.9420863,0.854933 0.2906748,2.076827 -3.2631793,6.306985 -3.9852105,5.081493 z"
         style="fill:#000000;stroke:#000000;stroke-width:0.00327334;stroke-linecap:round;stroke-linejoin:round;stroke-miterlimit:4;stroke-opacity:1;stroke-dasharray:none;display:inline" />
      <path
         style="fill:#000000;stroke:#000000;stroke-width:0.00327334;stroke-linecap:round;stroke-linejoin:round;stroke-miterlimit:4;stroke-opacity:1;stroke-dasharray:none;display:inline"
         d="M 0.8895499,25.991748 C 2.1033582,25.273845 2.2495704,24.50591 2.5993253,22.739649 2.9075086,21.183323 3.0886848,20.589555 2.8501552,20.027559 2.3293982,19.59143 1.1453396,19.177607 0.7862391,19.53475 c -1.4868955,1.478799 -1.2126362,6.996851 0.1033111,6.456997 z"
         id="path3832"
         inkscape:connector-curvature="0"
         sodipodi:nodetypes="cscsc" />
    </g>
    <g
       id="g3838"
       transform="matrix(-0.67755654,-0.03116325,0.08903794,-0.52422508,28.298136,18.714448)">
      <path
         style="fill:#000000;stroke:#000000;stroke-width:0.00327334;stroke-linecap:round;stroke-linejoin:round;stroke-miterlimit:4;stroke-opacity:1;stroke-dasharray:none;display:inline"
         d="m 2.7858782,26.70291 c -0.5330418,-1.305596 -0.1853453,-2.005746 0.6036337,-3.624238 0.6952028,-1.426121 0.9097704,-2.008655 1.4394909,-2.312189 0.678475,-0.03267 1.8718846,0.353359 1.9420863,0.854933 0.2906748,2.076827 -3.2631793,6.306985 -3.9852105,5.081493 z"
         id="path3840"
         inkscape:connector-curvature="0"
         sodipodi:nodetypes="cscsc" />
      <path
         sodipodi:nodetypes="cscsc"
         inkscape:connector-curvature="0"
         id="path3842"
         d="M 0.8895499,25.991748 C 2.1033582,25.273845 2.2495704,24.50591 2.5993253,22.739649 2.9075086,21.183323 3.0886848,20.589555 2.8501552,20.027559 2.3293982,19.59143 1.1453396,19.177607 0.7862391,19.53475 c -1.4868955,1.478799 -1.2126362,6.996851 0.1033111,6.456997 z"
         style="fill:#000000;stroke:#000000;stroke-width:0.00327334;stroke-linecap:round;stroke-linejoin:round;stroke-miterlimit:4;stroke-opacity:1;stroke-dasharray:none;display:inline" />
    </g>
    <g
       transform="matrix(0.18537362,-0.65244972,0.48994349,0.20662785,14.976354,26.878043)"
       id="g3850">
      <path
         sodipodi:nodetypes="cscsc"
         inkscape:connector-curvature="0"
         id="path3852"
         d="m 2.7858782,26.70291 c -0.5330418,-1.305596 -0.1853453,-2.005746 0.6036337,-3.624238 0.6952028,-1.426121 0.9097704,-2.008655 1.4394909,-2.312189 0.678475,-0.03267 1.8718846,0.353359 1.9420863,0.854933 0.2906748,2.076827 -3.2631793,6.306985 -3.9852105,5.081493 z"
         style="fill:#000000;stroke:#000000;stroke-width:0.00327334;stroke-linecap:round;stroke-linejoin:round;stroke-miterlimit:4;stroke-opacity:1;stroke-dasharray:none;display:inline" />
      <path
         style="fill:#000000;stroke:#000000;stroke-width:0.00327334;stroke-linecap:round;stroke-linejoin:round;stroke-miterlimit:4;stroke-opacity:1;stroke-dasharray:none;display:inline"
         d="M 0.8895499,25.991748 C 2.1033582,25.273845 2.2495704,24.50591 2.5993253,22.739649 2.9075086,21.183323 3.0886848,20.589555 2.8501552,20.027559 2.3293982,19.59143 1.1453396,19.177607 0.7862391,19.53475 c -1.4868955,1.478799 -1.2126362,6.996851 0.1033111,6.456997 z"
         id="path3854"
         inkscape:connector-curvature="0"
         sodipodi:nodetypes="cscsc" />
    </g>
  </g>
</svg>
